<mxfile host="app.diagrams.net" modified="2024-02-13T17:22:57.046Z" agent="Mozilla/5.0 (Windows NT 10.0; Win64; x64) AppleWebKit/537.36 (KHTML, like Gecko) Chrome/121.0.0.0 Safari/537.36 Edg/121.0.0.0" etag="eJRcM3Pehe80vVWL2F9y" version="23.1.3" type="device">
  <diagram name="Страница — 1" id="fKBUCXl6949Xtr6X0akW">
    <mxGraphModel dx="2070" dy="1258" grid="1" gridSize="10" guides="1" tooltips="1" connect="1" arrows="1" fold="1" page="1" pageScale="1" pageWidth="827" pageHeight="1169" math="0" shadow="0">
      <root>
        <mxCell id="0" />
        <mxCell id="1" parent="0" />
        <mxCell id="wD-DXvXVYZgzZNdiQsJs-2" value="" style="edgeStyle=orthogonalEdgeStyle;rounded=0;orthogonalLoop=1;jettySize=auto;html=1;" edge="1" parent="1" source="qY3sZJ4gQ_pa9tfZXsVX-1" target="wD-DXvXVYZgzZNdiQsJs-4">
          <mxGeometry relative="1" as="geometry">
            <mxPoint x="240" y="170" as="targetPoint" />
          </mxGeometry>
        </mxCell>
        <mxCell id="qY3sZJ4gQ_pa9tfZXsVX-1" value="heapBuild&lt;br&gt;(list, atr, dir)" style="strokeWidth=1;html=1;shape=mxgraph.flowchart.terminator;whiteSpace=wrap;" parent="1" vertex="1">
          <mxGeometry x="180" y="50" width="120" height="60" as="geometry" />
        </mxCell>
        <mxCell id="qY3sZJ4gQ_pa9tfZXsVX-28" value="&lt;span style=&quot;font-size: 20px;&quot;&gt;2&lt;/span&gt;" style="text;html=1;align=center;verticalAlign=middle;whiteSpace=wrap;rounded=0;" parent="1" vertex="1">
          <mxGeometry x="410" y="10" width="60" height="30" as="geometry" />
        </mxCell>
        <mxCell id="qY3sZJ4gQ_pa9tfZXsVX-29" value="&lt;span style=&quot;font-size: 20px;&quot;&gt;1&lt;/span&gt;" style="text;html=1;align=center;verticalAlign=middle;whiteSpace=wrap;rounded=0;" parent="1" vertex="1">
          <mxGeometry x="210" y="10" width="60" height="30" as="geometry" />
        </mxCell>
        <mxCell id="qY3sZJ4gQ_pa9tfZXsVX-30" value="&lt;span style=&quot;font-size: 20px;&quot;&gt;3&lt;/span&gt;" style="text;html=1;align=center;verticalAlign=middle;whiteSpace=wrap;rounded=0;" parent="1" vertex="1">
          <mxGeometry x="610" y="10" width="60" height="30" as="geometry" />
        </mxCell>
        <mxCell id="qY3sZJ4gQ_pa9tfZXsVX-31" value="&lt;span style=&quot;font-size: 20px;&quot;&gt;A&lt;/span&gt;" style="text;html=1;align=center;verticalAlign=middle;whiteSpace=wrap;rounded=0;" parent="1" vertex="1">
          <mxGeometry x="100" y="65" width="60" height="30" as="geometry" />
        </mxCell>
        <mxCell id="qY3sZJ4gQ_pa9tfZXsVX-32" value="&lt;span style=&quot;font-size: 20px;&quot;&gt;B&lt;/span&gt;" style="text;html=1;align=center;verticalAlign=middle;whiteSpace=wrap;rounded=0;" parent="1" vertex="1">
          <mxGeometry x="100" y="185" width="60" height="30" as="geometry" />
        </mxCell>
        <mxCell id="qY3sZJ4gQ_pa9tfZXsVX-33" value="&lt;span style=&quot;font-size: 20px;&quot;&gt;C&lt;/span&gt;" style="text;html=1;align=center;verticalAlign=middle;whiteSpace=wrap;rounded=0;" parent="1" vertex="1">
          <mxGeometry x="100" y="305" width="60" height="30" as="geometry" />
        </mxCell>
        <mxCell id="qY3sZJ4gQ_pa9tfZXsVX-34" value="&lt;span style=&quot;font-size: 20px;&quot;&gt;D&lt;/span&gt;" style="text;html=1;align=center;verticalAlign=middle;whiteSpace=wrap;rounded=0;" parent="1" vertex="1">
          <mxGeometry x="100" y="425" width="60" height="30" as="geometry" />
        </mxCell>
        <mxCell id="qY3sZJ4gQ_pa9tfZXsVX-35" value="&lt;span style=&quot;font-size: 20px;&quot;&gt;E&lt;/span&gt;" style="text;html=1;align=center;verticalAlign=middle;whiteSpace=wrap;rounded=0;" parent="1" vertex="1">
          <mxGeometry x="100" y="545" width="60" height="30" as="geometry" />
        </mxCell>
        <mxCell id="qY3sZJ4gQ_pa9tfZXsVX-36" value="&lt;span style=&quot;font-size: 20px;&quot;&gt;F&lt;/span&gt;" style="text;html=1;align=center;verticalAlign=middle;whiteSpace=wrap;rounded=0;" parent="1" vertex="1">
          <mxGeometry x="100" y="665" width="60" height="30" as="geometry" />
        </mxCell>
        <mxCell id="qY3sZJ4gQ_pa9tfZXsVX-75" value="&lt;span style=&quot;font-size: 20px;&quot;&gt;G&lt;/span&gt;" style="text;html=1;align=center;verticalAlign=middle;whiteSpace=wrap;rounded=0;" parent="1" vertex="1">
          <mxGeometry x="100" y="785" width="60" height="30" as="geometry" />
        </mxCell>
        <mxCell id="wD-DXvXVYZgzZNdiQsJs-48" value="" style="edgeStyle=orthogonalEdgeStyle;rounded=0;orthogonalLoop=1;jettySize=auto;html=1;" edge="1" parent="1" source="wD-DXvXVYZgzZNdiQsJs-4" target="wD-DXvXVYZgzZNdiQsJs-47">
          <mxGeometry relative="1" as="geometry" />
        </mxCell>
        <mxCell id="wD-DXvXVYZgzZNdiQsJs-51" value="" style="edgeStyle=orthogonalEdgeStyle;rounded=0;orthogonalLoop=1;jettySize=auto;html=1;" edge="1" parent="1" source="wD-DXvXVYZgzZNdiQsJs-4" target="wD-DXvXVYZgzZNdiQsJs-50">
          <mxGeometry relative="1" as="geometry" />
        </mxCell>
        <mxCell id="wD-DXvXVYZgzZNdiQsJs-4" value="last == 0?" style="rhombus;whiteSpace=wrap;html=1;" vertex="1" parent="1">
          <mxGeometry x="160" y="160" width="160" height="80" as="geometry" />
        </mxCell>
        <mxCell id="wD-DXvXVYZgzZNdiQsJs-45" value="&lt;span style=&quot;font-size: 20px;&quot;&gt;4&lt;/span&gt;" style="text;html=1;align=center;verticalAlign=middle;whiteSpace=wrap;rounded=0;" vertex="1" parent="1">
          <mxGeometry x="810" y="10" width="60" height="30" as="geometry" />
        </mxCell>
        <mxCell id="wD-DXvXVYZgzZNdiQsJs-47" value="Конец" style="strokeWidth=1;html=1;shape=mxgraph.flowchart.terminator;whiteSpace=wrap;" vertex="1" parent="1">
          <mxGeometry x="180" y="1370" width="120" height="60" as="geometry" />
        </mxCell>
        <mxCell id="wD-DXvXVYZgzZNdiQsJs-49" value="&lt;font style=&quot;font-size: 20px;&quot;&gt;да&lt;/font&gt;" style="text;html=1;align=center;verticalAlign=middle;whiteSpace=wrap;rounded=0;" vertex="1" parent="1">
          <mxGeometry x="230" y="230" width="60" height="30" as="geometry" />
        </mxCell>
        <mxCell id="wD-DXvXVYZgzZNdiQsJs-55" value="" style="edgeStyle=orthogonalEdgeStyle;rounded=0;orthogonalLoop=1;jettySize=auto;html=1;" edge="1" parent="1" source="wD-DXvXVYZgzZNdiQsJs-50" target="wD-DXvXVYZgzZNdiQsJs-54">
          <mxGeometry relative="1" as="geometry" />
        </mxCell>
        <mxCell id="wD-DXvXVYZgzZNdiQsJs-96" style="edgeStyle=orthogonalEdgeStyle;rounded=0;orthogonalLoop=1;jettySize=auto;html=1;" edge="1" parent="1" source="wD-DXvXVYZgzZNdiQsJs-50" target="wD-DXvXVYZgzZNdiQsJs-92">
          <mxGeometry relative="1" as="geometry" />
        </mxCell>
        <mxCell id="wD-DXvXVYZgzZNdiQsJs-50" value="indx == 0?" style="rhombus;whiteSpace=wrap;html=1;" vertex="1" parent="1">
          <mxGeometry x="360" y="160" width="160" height="80" as="geometry" />
        </mxCell>
        <mxCell id="wD-DXvXVYZgzZNdiQsJs-52" value="&lt;font style=&quot;font-size: 20px;&quot;&gt;нет&lt;/font&gt;" style="text;html=1;align=center;verticalAlign=middle;whiteSpace=wrap;rounded=0;" vertex="1" parent="1">
          <mxGeometry x="300" y="170" width="60" height="30" as="geometry" />
        </mxCell>
        <mxCell id="wD-DXvXVYZgzZNdiQsJs-57" value="" style="edgeStyle=orthogonalEdgeStyle;rounded=0;orthogonalLoop=1;jettySize=auto;html=1;" edge="1" parent="1" source="wD-DXvXVYZgzZNdiQsJs-54" target="wD-DXvXVYZgzZNdiQsJs-56">
          <mxGeometry relative="1" as="geometry" />
        </mxCell>
        <mxCell id="wD-DXvXVYZgzZNdiQsJs-54" value="ptr1 = list-&amp;gt;head&amp;gt;next&lt;br&gt;ptr2 = ptr1-&amp;gt;next" style="rounded=0;whiteSpace=wrap;html=1;" vertex="1" parent="1">
          <mxGeometry x="380" y="290" width="120" height="60" as="geometry" />
        </mxCell>
        <mxCell id="wD-DXvXVYZgzZNdiQsJs-59" value="" style="edgeStyle=orthogonalEdgeStyle;rounded=0;orthogonalLoop=1;jettySize=auto;html=1;" edge="1" parent="1" source="wD-DXvXVYZgzZNdiQsJs-56" target="wD-DXvXVYZgzZNdiQsJs-58">
          <mxGeometry relative="1" as="geometry" />
        </mxCell>
        <mxCell id="wD-DXvXVYZgzZNdiQsJs-64" style="edgeStyle=orthogonalEdgeStyle;rounded=0;orthogonalLoop=1;jettySize=auto;html=1;" edge="1" parent="1" source="wD-DXvXVYZgzZNdiQsJs-56" target="wD-DXvXVYZgzZNdiQsJs-62">
          <mxGeometry relative="1" as="geometry">
            <Array as="points">
              <mxPoint x="550" y="440" />
              <mxPoint x="550" y="620" />
              <mxPoint x="440" y="620" />
            </Array>
          </mxGeometry>
        </mxCell>
        <mxCell id="wD-DXvXVYZgzZNdiQsJs-56" value="last == 1?" style="rhombus;whiteSpace=wrap;html=1;" vertex="1" parent="1">
          <mxGeometry x="360" y="400" width="160" height="80" as="geometry" />
        </mxCell>
        <mxCell id="wD-DXvXVYZgzZNdiQsJs-63" value="" style="edgeStyle=orthogonalEdgeStyle;rounded=0;orthogonalLoop=1;jettySize=auto;html=1;" edge="1" parent="1" source="wD-DXvXVYZgzZNdiQsJs-58" target="wD-DXvXVYZgzZNdiQsJs-62">
          <mxGeometry relative="1" as="geometry" />
        </mxCell>
        <mxCell id="wD-DXvXVYZgzZNdiQsJs-58" value="ptr2 = NULL" style="rounded=0;whiteSpace=wrap;html=1;" vertex="1" parent="1">
          <mxGeometry x="380" y="530" width="120" height="60" as="geometry" />
        </mxCell>
        <mxCell id="wD-DXvXVYZgzZNdiQsJs-60" value="&lt;font style=&quot;font-size: 20px;&quot;&gt;да&lt;/font&gt;" style="text;html=1;align=center;verticalAlign=middle;whiteSpace=wrap;rounded=0;" vertex="1" parent="1">
          <mxGeometry x="430" y="230" width="60" height="30" as="geometry" />
        </mxCell>
        <mxCell id="wD-DXvXVYZgzZNdiQsJs-61" value="&lt;font style=&quot;font-size: 20px;&quot;&gt;да&lt;/font&gt;" style="text;html=1;align=center;verticalAlign=middle;whiteSpace=wrap;rounded=0;" vertex="1" parent="1">
          <mxGeometry x="430" y="470" width="60" height="30" as="geometry" />
        </mxCell>
        <mxCell id="wD-DXvXVYZgzZNdiQsJs-67" value="" style="edgeStyle=orthogonalEdgeStyle;rounded=0;orthogonalLoop=1;jettySize=auto;html=1;" edge="1" parent="1" source="wD-DXvXVYZgzZNdiQsJs-62" target="wD-DXvXVYZgzZNdiQsJs-66">
          <mxGeometry relative="1" as="geometry" />
        </mxCell>
        <mxCell id="wD-DXvXVYZgzZNdiQsJs-82" style="edgeStyle=orthogonalEdgeStyle;rounded=0;orthogonalLoop=1;jettySize=auto;html=1;" edge="1" parent="1" source="wD-DXvXVYZgzZNdiQsJs-62" target="wD-DXvXVYZgzZNdiQsJs-79">
          <mxGeometry relative="1" as="geometry" />
        </mxCell>
        <mxCell id="wD-DXvXVYZgzZNdiQsJs-62" value="compareList(list-&amp;gt;head,&lt;br&gt;ptr1, atr, dir)" style="rhombus;whiteSpace=wrap;html=1;" vertex="1" parent="1">
          <mxGeometry x="360" y="640" width="160" height="80" as="geometry" />
        </mxCell>
        <mxCell id="wD-DXvXVYZgzZNdiQsJs-65" value="&lt;font style=&quot;font-size: 20px;&quot;&gt;нет&lt;/font&gt;" style="text;html=1;align=center;verticalAlign=middle;whiteSpace=wrap;rounded=0;" vertex="1" parent="1">
          <mxGeometry x="500" y="410" width="60" height="30" as="geometry" />
        </mxCell>
        <mxCell id="wD-DXvXVYZgzZNdiQsJs-70" value="" style="edgeStyle=orthogonalEdgeStyle;rounded=0;orthogonalLoop=1;jettySize=auto;html=1;" edge="1" parent="1" source="wD-DXvXVYZgzZNdiQsJs-66" target="wD-DXvXVYZgzZNdiQsJs-68">
          <mxGeometry relative="1" as="geometry" />
        </mxCell>
        <mxCell id="wD-DXvXVYZgzZNdiQsJs-73" style="edgeStyle=orthogonalEdgeStyle;rounded=0;orthogonalLoop=1;jettySize=auto;html=1;" edge="1" parent="1" source="wD-DXvXVYZgzZNdiQsJs-66" target="wD-DXvXVYZgzZNdiQsJs-72">
          <mxGeometry relative="1" as="geometry" />
        </mxCell>
        <mxCell id="wD-DXvXVYZgzZNdiQsJs-66" value="ptr2 != NULL &amp;amp;&amp;amp; compareList(ptr1, ptr2,&lt;br&gt;atr, dir)" style="rhombus;whiteSpace=wrap;html=1;" vertex="1" parent="1">
          <mxGeometry x="360" y="760" width="160" height="80" as="geometry" />
        </mxCell>
        <mxCell id="wD-DXvXVYZgzZNdiQsJs-71" value="" style="edgeStyle=orthogonalEdgeStyle;rounded=0;orthogonalLoop=1;jettySize=auto;html=1;" edge="1" parent="1" source="wD-DXvXVYZgzZNdiQsJs-68" target="wD-DXvXVYZgzZNdiQsJs-69">
          <mxGeometry relative="1" as="geometry" />
        </mxCell>
        <mxCell id="wD-DXvXVYZgzZNdiQsJs-68" value="swapHead(list, ptr1)" style="rounded=0;whiteSpace=wrap;html=1;" vertex="1" parent="1">
          <mxGeometry x="380" y="890" width="120" height="60" as="geometry" />
        </mxCell>
        <mxCell id="wD-DXvXVYZgzZNdiQsJs-87" style="edgeStyle=orthogonalEdgeStyle;rounded=0;orthogonalLoop=1;jettySize=auto;html=1;" edge="1" parent="1" source="wD-DXvXVYZgzZNdiQsJs-69" target="wD-DXvXVYZgzZNdiQsJs-47">
          <mxGeometry relative="1" as="geometry">
            <Array as="points">
              <mxPoint x="440" y="1100" />
              <mxPoint x="240" y="1100" />
            </Array>
          </mxGeometry>
        </mxCell>
        <mxCell id="wD-DXvXVYZgzZNdiQsJs-69" value="heapRecUp(list,&lt;br&gt;list-&amp;gt;head-&amp;gt;next,&lt;br&gt;list-&amp;gt;head-&amp;gt;next-&amp;gt;next, 2, last, atr, dir)" style="rounded=0;whiteSpace=wrap;html=1;" vertex="1" parent="1">
          <mxGeometry x="380" y="1010" width="120" height="60" as="geometry" />
        </mxCell>
        <mxCell id="wD-DXvXVYZgzZNdiQsJs-78" value="" style="edgeStyle=orthogonalEdgeStyle;rounded=0;orthogonalLoop=1;jettySize=auto;html=1;" edge="1" parent="1" source="wD-DXvXVYZgzZNdiQsJs-72" target="wD-DXvXVYZgzZNdiQsJs-77">
          <mxGeometry relative="1" as="geometry" />
        </mxCell>
        <mxCell id="wD-DXvXVYZgzZNdiQsJs-72" value="swapHeadNeghbours&lt;br&gt;(list)" style="rounded=0;whiteSpace=wrap;html=1;" vertex="1" parent="1">
          <mxGeometry x="580" y="890" width="120" height="60" as="geometry" />
        </mxCell>
        <mxCell id="wD-DXvXVYZgzZNdiQsJs-74" value="&lt;font style=&quot;font-size: 20px;&quot;&gt;да&lt;/font&gt;" style="text;html=1;align=center;verticalAlign=middle;whiteSpace=wrap;rounded=0;" vertex="1" parent="1">
          <mxGeometry x="430" y="710" width="60" height="30" as="geometry" />
        </mxCell>
        <mxCell id="wD-DXvXVYZgzZNdiQsJs-75" value="&lt;font style=&quot;font-size: 20px;&quot;&gt;нет&lt;/font&gt;" style="text;html=1;align=center;verticalAlign=middle;whiteSpace=wrap;rounded=0;" vertex="1" parent="1">
          <mxGeometry x="500" y="770" width="60" height="30" as="geometry" />
        </mxCell>
        <mxCell id="wD-DXvXVYZgzZNdiQsJs-76" value="&lt;font style=&quot;font-size: 20px;&quot;&gt;да&lt;/font&gt;" style="text;html=1;align=center;verticalAlign=middle;whiteSpace=wrap;rounded=0;" vertex="1" parent="1">
          <mxGeometry x="430" y="830" width="60" height="30" as="geometry" />
        </mxCell>
        <mxCell id="wD-DXvXVYZgzZNdiQsJs-88" style="edgeStyle=orthogonalEdgeStyle;rounded=0;orthogonalLoop=1;jettySize=auto;html=1;" edge="1" parent="1" source="wD-DXvXVYZgzZNdiQsJs-77" target="wD-DXvXVYZgzZNdiQsJs-47">
          <mxGeometry relative="1" as="geometry">
            <Array as="points">
              <mxPoint x="640" y="1100" />
              <mxPoint x="240" y="1100" />
            </Array>
          </mxGeometry>
        </mxCell>
        <mxCell id="wD-DXvXVYZgzZNdiQsJs-77" value="heapRecUp(list,&lt;br&gt;list-&amp;gt;head,&lt;br&gt;list-&amp;gt;head-&amp;gt;next,&lt;br&gt;1, last, atr, dir)" style="rounded=0;whiteSpace=wrap;html=1;" vertex="1" parent="1">
          <mxGeometry x="580" y="1010" width="120" height="60" as="geometry" />
        </mxCell>
        <mxCell id="wD-DXvXVYZgzZNdiQsJs-83" value="" style="edgeStyle=orthogonalEdgeStyle;rounded=0;orthogonalLoop=1;jettySize=auto;html=1;" edge="1" parent="1" source="wD-DXvXVYZgzZNdiQsJs-79" target="wD-DXvXVYZgzZNdiQsJs-80">
          <mxGeometry relative="1" as="geometry" />
        </mxCell>
        <mxCell id="wD-DXvXVYZgzZNdiQsJs-90" style="edgeStyle=orthogonalEdgeStyle;rounded=0;orthogonalLoop=1;jettySize=auto;html=1;" edge="1" parent="1" source="wD-DXvXVYZgzZNdiQsJs-79" target="wD-DXvXVYZgzZNdiQsJs-47">
          <mxGeometry relative="1" as="geometry">
            <Array as="points">
              <mxPoint x="740" y="805" />
              <mxPoint x="740" y="1100" />
              <mxPoint x="240" y="1100" />
            </Array>
          </mxGeometry>
        </mxCell>
        <mxCell id="wD-DXvXVYZgzZNdiQsJs-79" value="ptr2 != NULL &amp;amp;&amp;amp; compareList(ptr1, ptr2,&lt;br&gt;atr, dir)" style="rhombus;whiteSpace=wrap;html=1;" vertex="1" parent="1">
          <mxGeometry x="760" y="765" width="160" height="80" as="geometry" />
        </mxCell>
        <mxCell id="wD-DXvXVYZgzZNdiQsJs-84" value="" style="edgeStyle=orthogonalEdgeStyle;rounded=0;orthogonalLoop=1;jettySize=auto;html=1;" edge="1" parent="1" source="wD-DXvXVYZgzZNdiQsJs-80" target="wD-DXvXVYZgzZNdiQsJs-81">
          <mxGeometry relative="1" as="geometry" />
        </mxCell>
        <mxCell id="wD-DXvXVYZgzZNdiQsJs-80" value="swapHead(list, ptr1)" style="rounded=0;whiteSpace=wrap;html=1;" vertex="1" parent="1">
          <mxGeometry x="780" y="895" width="120" height="60" as="geometry" />
        </mxCell>
        <mxCell id="wD-DXvXVYZgzZNdiQsJs-89" style="edgeStyle=orthogonalEdgeStyle;rounded=0;orthogonalLoop=1;jettySize=auto;html=1;" edge="1" parent="1" source="wD-DXvXVYZgzZNdiQsJs-81" target="wD-DXvXVYZgzZNdiQsJs-47">
          <mxGeometry relative="1" as="geometry">
            <Array as="points">
              <mxPoint x="840" y="1100" />
              <mxPoint x="240" y="1100" />
            </Array>
          </mxGeometry>
        </mxCell>
        <mxCell id="wD-DXvXVYZgzZNdiQsJs-81" value="heapRecUp(list,&lt;br&gt;list-&amp;gt;head-&amp;gt;next,&lt;br&gt;list-&amp;gt;head-&amp;gt;next-&amp;gt;next, 2, last, atr, dir)" style="rounded=0;whiteSpace=wrap;html=1;" vertex="1" parent="1">
          <mxGeometry x="780" y="1015" width="120" height="60" as="geometry" />
        </mxCell>
        <mxCell id="wD-DXvXVYZgzZNdiQsJs-85" value="&lt;font style=&quot;font-size: 20px;&quot;&gt;нет&lt;/font&gt;" style="text;html=1;align=center;verticalAlign=middle;whiteSpace=wrap;rounded=0;" vertex="1" parent="1">
          <mxGeometry x="500" y="650" width="60" height="30" as="geometry" />
        </mxCell>
        <mxCell id="wD-DXvXVYZgzZNdiQsJs-86" value="&lt;font style=&quot;font-size: 20px;&quot;&gt;да&lt;/font&gt;" style="text;html=1;align=center;verticalAlign=middle;whiteSpace=wrap;rounded=0;" vertex="1" parent="1">
          <mxGeometry x="830" y="840" width="60" height="30" as="geometry" />
        </mxCell>
        <mxCell id="wD-DXvXVYZgzZNdiQsJs-91" value="&lt;font style=&quot;font-size: 20px;&quot;&gt;нет&lt;/font&gt;" style="text;html=1;align=center;verticalAlign=middle;whiteSpace=wrap;rounded=0;" vertex="1" parent="1">
          <mxGeometry x="730" y="770" width="60" height="30" as="geometry" />
        </mxCell>
        <mxCell id="wD-DXvXVYZgzZNdiQsJs-102" value="" style="edgeStyle=orthogonalEdgeStyle;rounded=0;orthogonalLoop=1;jettySize=auto;html=1;" edge="1" parent="1" source="wD-DXvXVYZgzZNdiQsJs-92" target="wD-DXvXVYZgzZNdiQsJs-99">
          <mxGeometry relative="1" as="geometry" />
        </mxCell>
        <mxCell id="wD-DXvXVYZgzZNdiQsJs-92" value="len = lenList(list)" style="rounded=0;whiteSpace=wrap;html=1;" vertex="1" parent="1">
          <mxGeometry x="980" y="290" width="120" height="60" as="geometry" />
        </mxCell>
        <mxCell id="wD-DXvXVYZgzZNdiQsJs-94" value="&lt;span style=&quot;font-size: 20px;&quot;&gt;5&lt;/span&gt;" style="text;html=1;align=center;verticalAlign=middle;whiteSpace=wrap;rounded=0;" vertex="1" parent="1">
          <mxGeometry x="1010" y="10" width="60" height="30" as="geometry" />
        </mxCell>
        <mxCell id="wD-DXvXVYZgzZNdiQsJs-97" value="&lt;font style=&quot;font-size: 20px;&quot;&gt;нет&lt;/font&gt;" style="text;html=1;align=center;verticalAlign=middle;whiteSpace=wrap;rounded=0;" vertex="1" parent="1">
          <mxGeometry x="500" y="170" width="60" height="30" as="geometry" />
        </mxCell>
        <mxCell id="wD-DXvXVYZgzZNdiQsJs-101" value="" style="edgeStyle=orthogonalEdgeStyle;rounded=0;orthogonalLoop=1;jettySize=auto;html=1;" edge="1" parent="1" source="wD-DXvXVYZgzZNdiQsJs-99" target="wD-DXvXVYZgzZNdiQsJs-100">
          <mxGeometry relative="1" as="geometry" />
        </mxCell>
        <mxCell id="wD-DXvXVYZgzZNdiQsJs-103" style="edgeStyle=orthogonalEdgeStyle;rounded=0;orthogonalLoop=1;jettySize=auto;html=1;" edge="1" parent="1" source="wD-DXvXVYZgzZNdiQsJs-99" target="wD-DXvXVYZgzZNdiQsJs-47">
          <mxGeometry relative="1" as="geometry">
            <Array as="points">
              <mxPoint x="1040" y="1160" />
            </Array>
          </mxGeometry>
        </mxCell>
        <mxCell id="wD-DXvXVYZgzZNdiQsJs-99" value="indx &amp;gt; len/2" style="rhombus;whiteSpace=wrap;html=1;" vertex="1" parent="1">
          <mxGeometry x="960" y="400" width="160" height="80" as="geometry" />
        </mxCell>
        <mxCell id="wD-DXvXVYZgzZNdiQsJs-105" style="edgeStyle=orthogonalEdgeStyle;rounded=0;orthogonalLoop=1;jettySize=auto;html=1;" edge="1" parent="1" source="wD-DXvXVYZgzZNdiQsJs-100" target="wD-DXvXVYZgzZNdiQsJs-47">
          <mxGeometry relative="1" as="geometry">
            <Array as="points">
              <mxPoint x="1240" y="1160" />
            </Array>
          </mxGeometry>
        </mxCell>
        <mxCell id="wD-DXvXVYZgzZNdiQsJs-110" style="edgeStyle=orthogonalEdgeStyle;rounded=0;orthogonalLoop=1;jettySize=auto;html=1;entryX=0.5;entryY=0;entryDx=0;entryDy=0;" edge="1" parent="1" source="wD-DXvXVYZgzZNdiQsJs-100" target="wD-DXvXVYZgzZNdiQsJs-109">
          <mxGeometry relative="1" as="geometry" />
        </mxCell>
        <mxCell id="wD-DXvXVYZgzZNdiQsJs-100" value="2*indx+1 &amp;gt; last" style="rhombus;whiteSpace=wrap;html=1;" vertex="1" parent="1">
          <mxGeometry x="1160" y="400" width="160" height="80" as="geometry" />
        </mxCell>
        <mxCell id="wD-DXvXVYZgzZNdiQsJs-106" value="&lt;font style=&quot;font-size: 20px;&quot;&gt;нет&lt;/font&gt;" style="text;html=1;align=center;verticalAlign=middle;whiteSpace=wrap;rounded=0;" vertex="1" parent="1">
          <mxGeometry x="1100" y="410" width="60" height="30" as="geometry" />
        </mxCell>
        <mxCell id="wD-DXvXVYZgzZNdiQsJs-107" value="&lt;font style=&quot;font-size: 20px;&quot;&gt;да&lt;/font&gt;" style="text;html=1;align=center;verticalAlign=middle;whiteSpace=wrap;rounded=0;" vertex="1" parent="1">
          <mxGeometry x="1030" y="470" width="60" height="30" as="geometry" />
        </mxCell>
        <mxCell id="wD-DXvXVYZgzZNdiQsJs-108" value="&lt;font style=&quot;font-size: 20px;&quot;&gt;да&lt;/font&gt;" style="text;html=1;align=center;verticalAlign=middle;whiteSpace=wrap;rounded=0;" vertex="1" parent="1">
          <mxGeometry x="1230" y="470" width="60" height="30" as="geometry" />
        </mxCell>
        <mxCell id="wD-DXvXVYZgzZNdiQsJs-113" value="" style="edgeStyle=orthogonalEdgeStyle;rounded=0;orthogonalLoop=1;jettySize=auto;html=1;" edge="1" parent="1" source="wD-DXvXVYZgzZNdiQsJs-109" target="wD-DXvXVYZgzZNdiQsJs-112">
          <mxGeometry relative="1" as="geometry" />
        </mxCell>
        <mxCell id="wD-DXvXVYZgzZNdiQsJs-109" value="ptrToIndx(list, &amp;amp;prev1, 2*indx+1 - 1);&lt;br&gt;ptr1 = prev1-&amp;gt;next;&lt;br&gt;ptr2 = ptr1-&amp;gt;next;" style="rounded=0;whiteSpace=wrap;html=1;" vertex="1" parent="1">
          <mxGeometry x="1380" y="530" width="120" height="60" as="geometry" />
        </mxCell>
        <mxCell id="wD-DXvXVYZgzZNdiQsJs-111" value="&lt;font style=&quot;font-size: 20px;&quot;&gt;нет&lt;/font&gt;" style="text;html=1;align=center;verticalAlign=middle;whiteSpace=wrap;rounded=0;" vertex="1" parent="1">
          <mxGeometry x="1300" y="410" width="60" height="30" as="geometry" />
        </mxCell>
        <mxCell id="wD-DXvXVYZgzZNdiQsJs-115" value="" style="edgeStyle=orthogonalEdgeStyle;rounded=0;orthogonalLoop=1;jettySize=auto;html=1;" edge="1" parent="1" source="wD-DXvXVYZgzZNdiQsJs-112" target="wD-DXvXVYZgzZNdiQsJs-114">
          <mxGeometry relative="1" as="geometry" />
        </mxCell>
        <mxCell id="wD-DXvXVYZgzZNdiQsJs-120" style="edgeStyle=orthogonalEdgeStyle;rounded=0;orthogonalLoop=1;jettySize=auto;html=1;" edge="1" parent="1" source="wD-DXvXVYZgzZNdiQsJs-112" target="wD-DXvXVYZgzZNdiQsJs-116">
          <mxGeometry relative="1" as="geometry">
            <Array as="points">
              <mxPoint x="1540" y="680" />
              <mxPoint x="1540" y="860" />
              <mxPoint x="1440" y="860" />
            </Array>
          </mxGeometry>
        </mxCell>
        <mxCell id="wD-DXvXVYZgzZNdiQsJs-112" value="2*indx+1 &amp;gt; last" style="rhombus;whiteSpace=wrap;html=1;" vertex="1" parent="1">
          <mxGeometry x="1360" y="640" width="160" height="80" as="geometry" />
        </mxCell>
        <mxCell id="wD-DXvXVYZgzZNdiQsJs-117" value="" style="edgeStyle=orthogonalEdgeStyle;rounded=0;orthogonalLoop=1;jettySize=auto;html=1;" edge="1" parent="1" source="wD-DXvXVYZgzZNdiQsJs-114" target="wD-DXvXVYZgzZNdiQsJs-116">
          <mxGeometry relative="1" as="geometry" />
        </mxCell>
        <mxCell id="wD-DXvXVYZgzZNdiQsJs-114" value="ptr2 = NULL" style="rounded=0;whiteSpace=wrap;html=1;" vertex="1" parent="1">
          <mxGeometry x="1380" y="770" width="120" height="60" as="geometry" />
        </mxCell>
        <mxCell id="wD-DXvXVYZgzZNdiQsJs-123" value="" style="edgeStyle=orthogonalEdgeStyle;rounded=0;orthogonalLoop=1;jettySize=auto;html=1;" edge="1" parent="1" source="wD-DXvXVYZgzZNdiQsJs-116" target="wD-DXvXVYZgzZNdiQsJs-121">
          <mxGeometry relative="1" as="geometry" />
        </mxCell>
        <mxCell id="wD-DXvXVYZgzZNdiQsJs-140" style="edgeStyle=orthogonalEdgeStyle;rounded=0;orthogonalLoop=1;jettySize=auto;html=1;" edge="1" parent="1" source="wD-DXvXVYZgzZNdiQsJs-116" target="wD-DXvXVYZgzZNdiQsJs-135">
          <mxGeometry relative="1" as="geometry" />
        </mxCell>
        <mxCell id="wD-DXvXVYZgzZNdiQsJs-116" value="compareList(parent, ptr1,&lt;br&gt;atr, dir)" style="rhombus;whiteSpace=wrap;html=1;" vertex="1" parent="1">
          <mxGeometry x="1360" y="880" width="160" height="80" as="geometry" />
        </mxCell>
        <mxCell id="wD-DXvXVYZgzZNdiQsJs-118" value="&lt;font style=&quot;font-size: 20px;&quot;&gt;да&lt;/font&gt;" style="text;html=1;align=center;verticalAlign=middle;whiteSpace=wrap;rounded=0;" vertex="1" parent="1">
          <mxGeometry x="1430" y="710" width="60" height="30" as="geometry" />
        </mxCell>
        <mxCell id="wD-DXvXVYZgzZNdiQsJs-119" value="&lt;font style=&quot;font-size: 20px;&quot;&gt;нет&lt;/font&gt;" style="text;html=1;align=center;verticalAlign=middle;whiteSpace=wrap;rounded=0;" vertex="1" parent="1">
          <mxGeometry x="1495" y="648" width="60" height="30" as="geometry" />
        </mxCell>
        <mxCell id="wD-DXvXVYZgzZNdiQsJs-128" value="" style="edgeStyle=orthogonalEdgeStyle;rounded=0;orthogonalLoop=1;jettySize=auto;html=1;" edge="1" parent="1" source="wD-DXvXVYZgzZNdiQsJs-121" target="wD-DXvXVYZgzZNdiQsJs-125">
          <mxGeometry relative="1" as="geometry" />
        </mxCell>
        <mxCell id="wD-DXvXVYZgzZNdiQsJs-133" style="edgeStyle=orthogonalEdgeStyle;rounded=0;orthogonalLoop=1;jettySize=auto;html=1;" edge="1" parent="1" source="wD-DXvXVYZgzZNdiQsJs-121" target="wD-DXvXVYZgzZNdiQsJs-131">
          <mxGeometry relative="1" as="geometry" />
        </mxCell>
        <mxCell id="wD-DXvXVYZgzZNdiQsJs-121" value="ptr2 != NULL &amp;amp;&amp;amp; compareList(ptr1, ptr2,&lt;br&gt;atr, dir)" style="rhombus;whiteSpace=wrap;html=1;" vertex="1" parent="1">
          <mxGeometry x="1360" y="1005" width="160" height="80" as="geometry" />
        </mxCell>
        <mxCell id="wD-DXvXVYZgzZNdiQsJs-124" value="&lt;font style=&quot;font-size: 20px;&quot;&gt;да&lt;/font&gt;" style="text;html=1;align=center;verticalAlign=middle;whiteSpace=wrap;rounded=0;" vertex="1" parent="1">
          <mxGeometry x="1435" y="950" width="60" height="30" as="geometry" />
        </mxCell>
        <mxCell id="wD-DXvXVYZgzZNdiQsJs-129" value="" style="edgeStyle=orthogonalEdgeStyle;rounded=0;orthogonalLoop=1;jettySize=auto;html=1;" edge="1" parent="1" source="wD-DXvXVYZgzZNdiQsJs-125" target="wD-DXvXVYZgzZNdiQsJs-126">
          <mxGeometry relative="1" as="geometry" />
        </mxCell>
        <mxCell id="wD-DXvXVYZgzZNdiQsJs-125" value="swap(prevPar, ptr1);" style="rounded=0;whiteSpace=wrap;html=1;" vertex="1" parent="1">
          <mxGeometry x="1380" y="1130" width="120" height="60" as="geometry" />
        </mxCell>
        <mxCell id="wD-DXvXVYZgzZNdiQsJs-144" style="edgeStyle=orthogonalEdgeStyle;rounded=0;orthogonalLoop=1;jettySize=auto;html=1;" edge="1" parent="1" source="wD-DXvXVYZgzZNdiQsJs-126" target="wD-DXvXVYZgzZNdiQsJs-47">
          <mxGeometry relative="1" as="geometry">
            <Array as="points">
              <mxPoint x="1440" y="1340" />
              <mxPoint x="240" y="1340" />
            </Array>
          </mxGeometry>
        </mxCell>
        <mxCell id="wD-DXvXVYZgzZNdiQsJs-126" value="heapRecUp(list, ptr1, ptr1-&amp;gt;next, 2*indx+2, last, atr, dir)" style="rounded=0;whiteSpace=wrap;html=1;" vertex="1" parent="1">
          <mxGeometry x="1380" y="1250" width="120" height="60" as="geometry" />
        </mxCell>
        <mxCell id="wD-DXvXVYZgzZNdiQsJs-130" value="&lt;font style=&quot;font-size: 20px;&quot;&gt;да&lt;/font&gt;" style="text;html=1;align=center;verticalAlign=middle;whiteSpace=wrap;rounded=0;" vertex="1" parent="1">
          <mxGeometry x="1435" y="1075" width="60" height="30" as="geometry" />
        </mxCell>
        <mxCell id="wD-DXvXVYZgzZNdiQsJs-134" value="" style="edgeStyle=orthogonalEdgeStyle;rounded=0;orthogonalLoop=1;jettySize=auto;html=1;" edge="1" parent="1" source="wD-DXvXVYZgzZNdiQsJs-131" target="wD-DXvXVYZgzZNdiQsJs-132">
          <mxGeometry relative="1" as="geometry" />
        </mxCell>
        <mxCell id="wD-DXvXVYZgzZNdiQsJs-131" value="swap(prevPar, prev1);" style="rounded=0;whiteSpace=wrap;html=1;" vertex="1" parent="1">
          <mxGeometry x="1580" y="1130" width="120" height="60" as="geometry" />
        </mxCell>
        <mxCell id="wD-DXvXVYZgzZNdiQsJs-145" style="edgeStyle=orthogonalEdgeStyle;rounded=0;orthogonalLoop=1;jettySize=auto;html=1;" edge="1" parent="1" source="wD-DXvXVYZgzZNdiQsJs-132" target="wD-DXvXVYZgzZNdiQsJs-47">
          <mxGeometry relative="1" as="geometry">
            <Array as="points">
              <mxPoint x="1640" y="1340" />
              <mxPoint x="240" y="1340" />
            </Array>
          </mxGeometry>
        </mxCell>
        <mxCell id="wD-DXvXVYZgzZNdiQsJs-132" value="heapRecUp(list, prev1, prev1-&amp;gt;next, 2*indx+1, last, atr, dir)" style="rounded=0;whiteSpace=wrap;html=1;" vertex="1" parent="1">
          <mxGeometry x="1580" y="1250" width="120" height="60" as="geometry" />
        </mxCell>
        <mxCell id="wD-DXvXVYZgzZNdiQsJs-138" value="" style="edgeStyle=orthogonalEdgeStyle;rounded=0;orthogonalLoop=1;jettySize=auto;html=1;" edge="1" parent="1" source="wD-DXvXVYZgzZNdiQsJs-135" target="wD-DXvXVYZgzZNdiQsJs-136">
          <mxGeometry relative="1" as="geometry" />
        </mxCell>
        <mxCell id="wD-DXvXVYZgzZNdiQsJs-147" style="edgeStyle=orthogonalEdgeStyle;rounded=0;orthogonalLoop=1;jettySize=auto;html=1;" edge="1" parent="1" source="wD-DXvXVYZgzZNdiQsJs-135" target="wD-DXvXVYZgzZNdiQsJs-47">
          <mxGeometry relative="1" as="geometry">
            <Array as="points">
              <mxPoint x="1940" y="1045" />
              <mxPoint x="1940" y="1340" />
              <mxPoint x="240" y="1340" />
            </Array>
          </mxGeometry>
        </mxCell>
        <mxCell id="wD-DXvXVYZgzZNdiQsJs-135" value="ptr2 != NULL &amp;amp;&amp;amp; compareList(ptr1, ptr2,&lt;br&gt;atr, dir)" style="rhombus;whiteSpace=wrap;html=1;" vertex="1" parent="1">
          <mxGeometry x="1760" y="1005" width="160" height="80" as="geometry" />
        </mxCell>
        <mxCell id="wD-DXvXVYZgzZNdiQsJs-139" value="" style="edgeStyle=orthogonalEdgeStyle;rounded=0;orthogonalLoop=1;jettySize=auto;html=1;" edge="1" parent="1" source="wD-DXvXVYZgzZNdiQsJs-136" target="wD-DXvXVYZgzZNdiQsJs-137">
          <mxGeometry relative="1" as="geometry" />
        </mxCell>
        <mxCell id="wD-DXvXVYZgzZNdiQsJs-136" value="swap(prevPar, ptr1);" style="rounded=0;whiteSpace=wrap;html=1;" vertex="1" parent="1">
          <mxGeometry x="1780" y="1130" width="120" height="60" as="geometry" />
        </mxCell>
        <mxCell id="wD-DXvXVYZgzZNdiQsJs-146" style="edgeStyle=orthogonalEdgeStyle;rounded=0;orthogonalLoop=1;jettySize=auto;html=1;" edge="1" parent="1" source="wD-DXvXVYZgzZNdiQsJs-137" target="wD-DXvXVYZgzZNdiQsJs-47">
          <mxGeometry relative="1" as="geometry">
            <Array as="points">
              <mxPoint x="1840" y="1340" />
              <mxPoint x="240" y="1340" />
            </Array>
          </mxGeometry>
        </mxCell>
        <mxCell id="wD-DXvXVYZgzZNdiQsJs-137" value="heapRecUp(list, ptr1, ptr1-&amp;gt;next, 2*indx+2, last, atr, dir)" style="rounded=0;whiteSpace=wrap;html=1;" vertex="1" parent="1">
          <mxGeometry x="1780" y="1250" width="120" height="60" as="geometry" />
        </mxCell>
        <mxCell id="wD-DXvXVYZgzZNdiQsJs-141" value="&lt;font style=&quot;font-size: 20px;&quot;&gt;нет&lt;/font&gt;" style="text;html=1;align=center;verticalAlign=middle;whiteSpace=wrap;rounded=0;" vertex="1" parent="1">
          <mxGeometry x="1495" y="890" width="60" height="30" as="geometry" />
        </mxCell>
        <mxCell id="wD-DXvXVYZgzZNdiQsJs-142" value="&lt;font style=&quot;font-size: 20px;&quot;&gt;нет&lt;/font&gt;" style="text;html=1;align=center;verticalAlign=middle;whiteSpace=wrap;rounded=0;" vertex="1" parent="1">
          <mxGeometry x="1495" y="1015" width="60" height="30" as="geometry" />
        </mxCell>
        <mxCell id="wD-DXvXVYZgzZNdiQsJs-143" value="&lt;font style=&quot;font-size: 20px;&quot;&gt;да&lt;/font&gt;" style="text;html=1;align=center;verticalAlign=middle;whiteSpace=wrap;rounded=0;" vertex="1" parent="1">
          <mxGeometry x="1830" y="1075" width="60" height="30" as="geometry" />
        </mxCell>
        <mxCell id="wD-DXvXVYZgzZNdiQsJs-148" value="&lt;span style=&quot;font-size: 20px;&quot;&gt;6&lt;/span&gt;" style="text;html=1;align=center;verticalAlign=middle;whiteSpace=wrap;rounded=0;" vertex="1" parent="1">
          <mxGeometry x="1210" y="10" width="60" height="30" as="geometry" />
        </mxCell>
        <mxCell id="wD-DXvXVYZgzZNdiQsJs-149" value="&lt;span style=&quot;font-size: 20px;&quot;&gt;7&lt;/span&gt;" style="text;html=1;align=center;verticalAlign=middle;whiteSpace=wrap;rounded=0;" vertex="1" parent="1">
          <mxGeometry x="1410" y="10" width="60" height="30" as="geometry" />
        </mxCell>
        <mxCell id="wD-DXvXVYZgzZNdiQsJs-150" value="&lt;span style=&quot;font-size: 20px;&quot;&gt;8&lt;/span&gt;" style="text;html=1;align=center;verticalAlign=middle;whiteSpace=wrap;rounded=0;" vertex="1" parent="1">
          <mxGeometry x="1610" y="10" width="60" height="30" as="geometry" />
        </mxCell>
        <mxCell id="wD-DXvXVYZgzZNdiQsJs-151" value="&lt;span style=&quot;font-size: 20px;&quot;&gt;9&lt;/span&gt;" style="text;html=1;align=center;verticalAlign=middle;whiteSpace=wrap;rounded=0;" vertex="1" parent="1">
          <mxGeometry x="1810" y="10" width="60" height="30" as="geometry" />
        </mxCell>
        <mxCell id="wD-DXvXVYZgzZNdiQsJs-152" value="&lt;span style=&quot;font-size: 20px;&quot;&gt;H&lt;/span&gt;" style="text;html=1;align=center;verticalAlign=middle;whiteSpace=wrap;rounded=0;" vertex="1" parent="1">
          <mxGeometry x="100" y="905" width="60" height="30" as="geometry" />
        </mxCell>
        <mxCell id="wD-DXvXVYZgzZNdiQsJs-153" value="&lt;span style=&quot;font-size: 20px;&quot;&gt;I&lt;/span&gt;" style="text;html=1;align=center;verticalAlign=middle;whiteSpace=wrap;rounded=0;" vertex="1" parent="1">
          <mxGeometry x="100" y="1025" width="60" height="30" as="geometry" />
        </mxCell>
        <mxCell id="wD-DXvXVYZgzZNdiQsJs-154" value="&lt;span style=&quot;font-size: 20px;&quot;&gt;J&lt;/span&gt;" style="text;html=1;align=center;verticalAlign=middle;whiteSpace=wrap;rounded=0;" vertex="1" parent="1">
          <mxGeometry x="100" y="1145" width="60" height="30" as="geometry" />
        </mxCell>
        <mxCell id="wD-DXvXVYZgzZNdiQsJs-155" value="&lt;span style=&quot;font-size: 20px;&quot;&gt;K&lt;/span&gt;" style="text;html=1;align=center;verticalAlign=middle;whiteSpace=wrap;rounded=0;" vertex="1" parent="1">
          <mxGeometry x="100" y="1265" width="60" height="30" as="geometry" />
        </mxCell>
        <mxCell id="wD-DXvXVYZgzZNdiQsJs-157" value="&lt;span style=&quot;font-size: 20px;&quot;&gt;L&lt;/span&gt;" style="text;html=1;align=center;verticalAlign=middle;whiteSpace=wrap;rounded=0;" vertex="1" parent="1">
          <mxGeometry x="100" y="1385" width="60" height="30" as="geometry" />
        </mxCell>
      </root>
    </mxGraphModel>
  </diagram>
</mxfile>
